<?xml version="1.0" ?><svg id="Layer_1" style="enable-background:new 0 0 366.924 283.148;" version="1.1" viewBox="0 0 366.924 283.148" xml:space="preserve" xmlns="http://www.w3.org/2000/svg" xmlns:xlink="http://www.w3.org/1999/xlink"><g><path d="M188.139,212.138c3.543-1.786,6.746-2.395,8.947-2.582c-3.949-4.762-6.326-10.871-6.326-17.525   c0-15.164,12.336-27.5,27.5-27.5c15.164,0,27.498,12.336,27.498,27.5c0,6.655-2.377,12.764-6.326,17.526   c2.221,0.189,5.418,0.801,8.971,2.593c4.793,2.395,9.154,6.435,12.605,11.673c1.783,2.724,3.355,5.797,4.744,9.188h5.861   c0.395-0.489,0.783-0.994,1.188-1.465c8.699-10.187,17.336-13.057,20.631-13.82c-1.68-1.573-3.168-3.371-4.418-5.378   c-3.74-6.01-4.912-13.115-3.307-20.009c2.81-12.065,13.416-20.49,25.787-20.49c2.02,0,4.047,0.232,6.025,0.695   c0.066,0.016,0.131,0.036,0.197,0.052v-22.585h-204v83h57.016C175.842,220.395,182.996,214.689,188.139,212.138z"/><path d="M338.717,145.011v-5v-27h-30.75v-12.072c3.807-0.492,6.75-3.738,6.75-7.678c0-4.28-3.469-7.75-7.75-7.75   c-4.279,0-7.75,3.47-7.75,7.75c0,3.94,2.943,7.187,6.75,7.678v12.072h-17v-12.072c3.807-0.492,6.75-3.738,6.75-7.678   c0-4.28-3.469-7.75-7.75-7.75c-4.279,0-7.75,3.47-7.75,7.75c0,3.94,2.943,7.187,6.75,7.678v12.072h-16.152v-69h-5.834v-5.125   h-25.334v5.125h-5.832v69h-6.334v-69h-5.834v-5.125h-25.334v5.125h-5.832v69h-6.334v-69h-5.834v-5.125H152.98v5.125h-5.834v69   h-14.68v-12.072c3.807-0.492,6.75-3.738,6.75-7.678c0-4.28-3.469-7.75-7.75-7.75c-4.279,0-7.75,3.47-7.75,7.75   c0,3.94,2.943,7.187,6.75,7.678v12.072H99.551v27v5H338.717z M239.647,53.011h25.334v4.667h-25.334V53.011z M239.647,62.261h25.334   v4.667h-25.334V62.261z M239.647,71.511h25.334v4.668h-25.334V71.511z M239.647,80.762h25.334v4.667h-25.334V80.762z    M239.647,90.012h25.334v4.667h-25.334V90.012z M239.647,103.803h25.334v9.208h-25.334V103.803z M196.313,53.011h25.334v4.667   h-25.334V53.011z M196.313,62.261h25.334v4.667h-25.334V62.261z M196.313,71.511h25.334v4.668h-25.334V71.511z M196.313,80.762   h25.334v4.667h-25.334V80.762z M196.313,90.012h25.334v4.667h-25.334V90.012z M196.313,103.803h25.334v9.208h-25.334V103.803z    M152.98,53.011h25.332v4.667H152.98V53.011z M152.98,62.261h25.332v4.667H152.98V62.261z M152.98,71.511h25.332v4.668H152.98   V71.511z M152.98,80.762h25.332v4.667H152.98V80.762z M152.98,90.012h25.332v4.667H152.98V90.012z M152.98,103.803h25.332v9.208   H152.98V103.803z"/><path d="M79.85,237.183c6.828,0,12.365-5.533,12.365-12.363V65.048c10.805-3.214,31.869-12.852,56.535-41.286   c2.9-3.334,2.549-8.386-0.783-11.286c-3.332-2.9-8.385-2.549-11.285,0.783c-16.143,18.545-29.949,27.866-39.426,32.59   c-4.74,2.36-8.404,3.571-10.768,4.19c-1.182,0.309-2.037,0.468-2.539,0.549c-0.25,0.041-0.412,0.06-0.48,0.066   c-0.008,0.001-0.016,0.002-0.02,0.002c-0.113,0.009-0.223,0.029-0.336,0.043H47.279c-0.004,0-0.006-0.002-0.01-0.002v-0.002   c-0.301-0.038-0.779-0.08-1.414-0.08c-2.844-0.078-9.385,1.106-15.197,7.188c-5.094,5.275-9.52,13.597-12.307,26.895   c-0.404,1.936-0.777,3.975-1.109,6.128c-0.002,0.008-0.002,0.017-0.004,0.025c-1.219,7.913-1.93,17.379-1.93,28.788   c0,5.855,0.186,12.224,0.594,19.159c0.248,4.25,3.774,7.531,7.98,7.531c0.156,0,0.314-0.004,0.475-0.014   c4.41-0.258,7.775-4.045,7.518-8.455c-0.393-6.651-0.568-12.709-0.566-18.222c-0.002-10.739,0.674-19.409,1.742-26.344   c0.002-0.01,0.004-0.019,0.006-0.029c0.313-2.043,0.664-3.918,1.037-5.662c1.176-5.487,2.605-9.564,4.029-12.553v30.814   l-4.57,3.095c-0.059,1.218-0.105,2.46-0.143,3.721l4.289-2.905l17.945,26.494l-33.533,22.711L4.168,132.485l9.225-6.248   c-0.027-1.208-0.047-2.402-0.061-3.584L0,131.684l21.311,31.463l16.812-11.388v73.06c0,6.83,5.537,12.363,12.363,12.363   c6.828,0,12.365-5.533,12.365-12.363v-90.271h4.635v90.271C67.486,231.649,73.023,237.183,79.85,237.183z M61.367,58.882h3.801   h3.799l1.9,7.5l-0.289,0.456c-1.566,1.306-3.484,1.96-5.412,1.962c-1.928-0.002-3.844-0.655-5.408-1.958l-0.291-0.46L61.367,58.882   z M65.168,123.382l-9.5-12l5.471-40.321c1.297,0.486,2.662,0.74,4.027,0.739h0.002c0,0,0.004,0,0.006,0   c1.363,0,2.725-0.254,4.02-0.74l5.475,40.322L65.168,123.382z"/><circle cx="65.168" cy="22.5" r="22.5"/><rect height="19.211" transform="matrix(0.82 -0.5724 0.5724 0.82 -65.9399 45.9921)" width="2.001" x="39.154" y="118.23"/><path d="M39.475,139.888l-5.912-8.464c0.051,1.233,0.109,2.48,0.174,3.74l4.098,5.868L39.475,139.888z"/><path d="M209.064,212.564h18.391c7.84-3.517,13.305-11.385,13.305-20.534c0-12.427-10.072-22.5-22.5-22.5   c-12.426,0-22.5,10.073-22.5,22.5C195.76,201.18,201.225,209.048,209.064,212.564z"/><path d="M304.738,218.747c2.127-0.236,4.424-0.399,6.768-0.407c2.352,0.008,4.654,0.171,6.785,0.409   c6.854-2.286,12.397-7.971,14.154-15.524c2.691-11.562-4.498-23.117-16.059-25.811c-11.563-2.691-23.117,4.5-25.811,16.061   C288.033,204.39,294.303,215.296,304.738,218.747z"/><path d="M265.883,251.962c-2.045-11.559-5.254-19.589-9.051-25.39c-3.285-4.987-7.129-8.184-10.678-9.957   c-3.549-1.789-6.662-2.144-8.436-2.137c-0.641,0-1.127,0.043-1.443,0.084h-36.027c-0.314-0.039-0.803-0.085-1.449-0.085   c-1.773-0.005-4.889,0.351-8.436,2.139c-5.379,2.667-11.178,8.502-15.234,18.84c-4.086,10.325-6.834,25.234-6.877,47.692h15.998   c0.002-23.993,3.512-37.504,6.965-44.567v44.567h54.092v-44.521c0.592,1.216,1.189,2.61,1.779,4.237   c2.803,7.765,5.158,20.482,5.178,40.283h17.123c4.502-20.434,10.836-32.2,16.223-38.856l-7.549,38.856h66.902l-7.545-38.83   c0.158,0.195,0.315,0.375,0.475,0.579c5.277,6.745,11.377,18.419,15.744,38.251h13.287c-5.076-24.756-12.904-39.497-20.496-48.346   c-8.435-9.876-16.553-12.015-18.721-12.362c-1.863-0.461-8.73-2.076-16.195-2.1c-7.467,0.023-14.334,1.639-16.197,2.1   c-2.168,0.348-10.283,2.486-18.719,12.362C272.969,239.028,269.291,244.602,265.883,251.962z"/></g></svg>